<?xml version="1.0" encoding="UTF-8" standalone="no"?>
<!-- Generator: Adobe Illustrator 16.0.0, SVG Export Plug-In . SVG Version: 6.00 Build 0)  -->

<svg
   xmlns:dc="http://purl.org/dc/elements/1.1/"
   xmlns:cc="http://creativecommons.org/ns#"
   xmlns:rdf="http://www.w3.org/1999/02/22-rdf-syntax-ns#"
   xmlns:svg="http://www.w3.org/2000/svg"
   xmlns="http://www.w3.org/2000/svg"
   xmlns:sodipodi="http://sodipodi.sourceforge.net/DTD/sodipodi-0.dtd"
   xmlns:inkscape="http://www.inkscape.org/namespaces/inkscape"
   version="1.1"
   id="Layer_1"
   x="0px"
   y="0px"
   width="120px"
   height="120px"
   viewBox="0 0 120 120"
   enable-background="new 0 0 120 120"
   xml:space="preserve"
   inkscape:version="0.91 r13725"
   sodipodi:docname="lock-icon.svg"
   inkscape:export-filename="C:\Users\admin\Desktop\XulNtlmAuth\extension\chrome\content\lock.png"
   inkscape:export-xdpi="36"
   inkscape:export-ydpi="36"><metadata
     id="metadata21"><rdf:RDF><cc:Work
         rdf:about=""><dc:format>image/svg+xml</dc:format><dc:type
           rdf:resource="http://purl.org/dc/dcmitype/StillImage" /><dc:title></dc:title></cc:Work></rdf:RDF></metadata><defs
     id="defs19" /><sodipodi:namedview
     pagecolor="#ffffff"
     bordercolor="#666666"
     borderopacity="1"
     objecttolerance="10"
     gridtolerance="10"
     guidetolerance="10"
     inkscape:pageopacity="0"
     inkscape:pageshadow="2"
     inkscape:window-width="1280"
     inkscape:window-height="971"
     id="namedview17"
     showgrid="false"
     inkscape:zoom="2"
     inkscape:cx="88.380793"
     inkscape:cy="78.897714"
     inkscape:window-x="1916"
     inkscape:window-y="-4"
     inkscape:window-maximized="1"
     inkscape:current-layer="Layer_1" /><path
     id="path4224"
     d="m 76.909817,64.272726 0,0 c 0,-17.594911 -14.314906,-31.909094 -31.909086,-31.909094 -17.594911,0 -31.909094,14.314183 -31.909094,31.909094 l 0,0 -8.0916371,0 0,50.727274 L 85,115 85,64.272726 Z m -50.72727,0 c 0,-10.376729 8.441456,-18.818184 18.818184,-18.818184 10.376724,0 18.81818,8.441455 18.81818,18.818184 l 0,0 -37.636364,0 z"
     inkscape:connector-curvature="0"
     style="fill:#000000;stroke:#000000;stroke-width:10;stroke-miterlimit:4;stroke-dasharray:none;stroke-opacity:1"
     sodipodi:nodetypes="ccsccccccccscccc" /><path
     inkscape:connector-curvature="0"
     d="m 76.909817,64.272726 0,0 c 0,-17.594911 -14.314906,-31.909094 -31.909086,-31.909094 -17.594911,0 -31.909094,14.314183 -31.909094,31.909094 l 0,0 -8.0916371,0 0,50.727274 L 85,115 l 0,-50.727274 -8.090183,0 z m -50.72727,0 c 0,-10.376729 8.441456,-18.818184 18.818184,-18.818184 10.376724,0 18.81818,8.441455 18.81818,18.818184 l 0,0 -37.636364,0 0,0 z m 23.090184,23.940365 0,14.588369 -8.646546,0 0,-14.591278 C 38.818912,86.880728 37.64073,84.744 37.64073,82.326545 c 0,-4.037091 3.272728,-7.309091 7.309819,-7.309091 4.037819,0 7.309088,3.272727 7.309088,7.309091 0,2.417455 -1.178178,4.555637 -2.986906,5.886546 z"
     id="path3"
     style="fill:#808000" /><path
     style="fill:#000000;stroke:#000000;stroke-opacity:1;stroke-width:10;stroke-miterlimit:4;stroke-dasharray:none"
     d="M 115.0918 5.0898438 L 55.255859 5.09375 L 55.255859 21.697266 L 84.931641 21.697266 L 52.988281 53.638672 L 66.462891 67.113281 L 98.400391 35.177734 L 98.408203 64.949219 L 114.99609 64.9375 L 114.98047 21.695312 L 115.08789 21.695312 L 115.0918 5.0898438 z "
     id="polygon4207" /><polygon
     points="60.257,0.095 120.092,0.091 120.088,16.696 60.256,16.697 "
     id="polygon3"
     transform="translate(-5.0004536,4.9995731)"
     style="fill:#00ffff" /><rect
     x="-0.45997652"
     y="75.397736"
     transform="matrix(0.70710678,-0.70710678,0.70710678,0.70710678,0,0)"
     width="60.208424"
     height="19.055817"
     id="rect5"
     style="fill:#00ffff" /><polygon
     points="103.408,59.95 103.393,0.104 119.975,0.107 119.996,59.938 "
     id="polygon7"
     transform="translate(-5.0004536,4.9995731)"
     style="fill:#00ffff" /><text
     xml:space="preserve"
     style="font-style:normal;font-weight:normal;font-size:40px;line-height:125%;font-family:sans-serif;letter-spacing:0px;word-spacing:0px;fill:#000000;fill-opacity:1;stroke:none;stroke-width:1px;stroke-linecap:butt;stroke-linejoin:miter;stroke-opacity:1"
     x="-32.439453"
     y="135.3999"
     id="text4226"
     sodipodi:linespacing="125%"><tspan
       sodipodi:role="line"
       id="tspan4228"
       x="-32.439453"
       y="135.3999"
       style="font-style:italic;font-variant:normal;font-weight:normal;font-stretch:normal;font-size:12.5px;font-family:sans-serif;-inkscape-font-specification:'sans-serif Italic'">http://publicicons.org/lock-icon/</tspan></text>
<text
     sodipodi:linespacing="125%"
     id="text4230"
     y="146.3999"
     x="-32.439453"
     style="font-style:normal;font-weight:normal;font-size:40px;line-height:125%;font-family:sans-serif;letter-spacing:0px;word-spacing:0px;fill:#000000;fill-opacity:1;stroke:none;stroke-width:1px;stroke-linecap:butt;stroke-linejoin:miter;stroke-opacity:1"
     xml:space="preserve"><tspan
       style="font-style:italic;font-variant:normal;font-weight:normal;font-stretch:normal;font-size:12.5px;font-family:sans-serif;-inkscape-font-specification:'sans-serif Italic'"
       y="146.3999"
       x="-32.439453"
       id="tspan4232"
       sodipodi:role="line">http://publicicons.org/external-icon/</tspan></text>
</svg>